Coordinates
version=1
nRows=26
nColumns=24
inDegrees=yes

Units are S.I. units (second, meters, Newtons, ...)
Angles are in degrees.

endheader
time	pelvis_tilt	pelvis_list	pelvis_rotation	pelvis_tx	pelvis_ty	pelvis_tz	hip_flexion_r	hip_adduction_r	hip_rotation_r	knee_angle_r	ankle_angle_r	subtalar_angle_r	mtp_angle_r	hip_flexion_l	hip_adduction_l	hip_rotation_l	knee_angle_l	ankle_angle_l	subtalar_angle_l	mtp_angle_l	lumbar_extension	lumbar_bending	lumbar_rotation
      3.52000000	     -3.33828057	      2.49232470	      4.84130773	     -0.13236739	      0.67224110	     -0.24109081	     27.45119055	      0.89553824	      5.52232467	     -1.95891542	      8.92134286	    -15.78375320	      0.00000000	    -22.20470079	      6.10156750	     20.33241284	     -9.82133621	      7.71387352	    -10.12260910	      0.00000000	    -13.27790323	     -1.64837947	     -9.64417349
      3.53000000	     -3.01481988	      1.64886270	      4.27217595	     -0.11640270	      0.67275547	     -0.24024183	     27.68958783	      2.36233610	      5.78447631	     -4.87100841	      7.75793069	    -16.26618432	      0.00000000	    -21.26956503	      5.55445972	     16.15399613	    -13.88412490	      7.45920143	     -5.11589885	      0.00000000	    -13.53645996	     -0.41229218	     -8.83714818
      3.54000000	     -3.23543629	      0.81607938	      3.67742437	     -0.10068563	      0.67286731	     -0.23933208	     28.72384483	      3.80584828	      5.53389815	     -8.36067469	      6.93414608	    -15.67746646	      0.00000000	    -19.27493453	      4.92392310	     12.27967849	    -18.53711236	      6.40004630	     -0.96652480	      0.00000000	    -13.14933333	      0.74258183	     -8.03476613
      3.55000000	     -3.49104044	     -0.00983154	      3.01041520	     -0.08519887	      0.67305507	     -0.23837828	     29.78932639	      5.23078553	      5.07914750	    -11.93638663	      6.24963096	    -14.67211343	      0.00000000	    -16.94701720	      4.17279730	      9.04986433	    -23.43962654	      4.54085020	      2.05279081	      0.00000000	    -12.77847048	      1.86723018	     -7.10940732
      3.56000000	     -3.96277696	     -0.73682848	      2.45893313	     -0.06993692	      0.67312366	     -0.23758878	     30.85825983	      6.43345679	      4.78412501	    -15.18074569	      5.77253180	    -13.61556944	      0.00000000	    -14.04944462	      3.38000498	      6.42052798	    -28.59868622	      2.11395210	      3.96616213	      0.00000000	    -12.13926540	      2.86575893	     -6.46908822
      3.57000000	     -4.21099863	     -1.54338773	      1.95626268	     -0.05489120	      0.67356908	     -0.23676985	     31.33513172	      7.67033552	      4.64419771	    -17.79435446	      5.35541396	    -12.91613828	      0.00000000	    -11.19412659	      2.36405878	      4.32875954	    -33.75918855	     -0.30453703	      5.16448843	      0.00000000	    -11.81438112	      3.93557577	     -5.85896207
      3.58000000	     -4.57284444	     -2.38256023	      1.63156022	     -0.04016658	      0.67406951	     -0.23604009	     31.54974726	      8.81142633	      4.47252789	    -19.68106178	      5.13601129	    -12.51203081	      0.00000000	     -7.97846786	      1.20887542	      2.81682184	    -38.94273831	     -2.37698235	      5.71332612	      0.00000000	    -11.34590944	      4.99843442	     -5.38532886
      3.59000000	     -4.97212132	     -3.22730131	      1.41677737	     -0.02589355	      0.67475978	     -0.23532699	     31.43128136	      9.86149560	      4.25132099	    -20.83803079	      5.17788773	    -12.26644770	      0.00000000	     -4.54616078	      0.00866247	      1.81537301	    -44.00491720	     -3.82968560	      5.75270274	      0.00000000	    -10.87744206	      6.00631614	     -4.96276471
      3.60000000	     -5.26249872	     -4.14915023	      1.27069164	     -0.01186001	      0.67581066	     -0.23449874	     30.75895662	     10.93690109	      4.06967955	    -21.18530249	      5.61403744	    -12.10384977	      0.00000000	     -1.15750464	     -1.31849040	      1.16463797	    -48.78904984	     -4.31500431	      5.64274478	      0.00000000	    -10.51943359	      7.01714067	     -4.49432242
      3.61000000	     -5.58446680	     -5.02883872	      1.08782662	      0.00187486	      0.67717683	     -0.23354171	     29.77397398	     11.95302747	      3.89693020	    -20.89237314	      6.22441348	    -11.90861480	      0.00000000	      2.29597811	     -2.57919865	      0.79016517	    -53.17749977	     -4.00751026	      5.39921649	      0.00000000	    -10.13144459	      7.89993027	     -3.91081167
      3.62000000	     -5.83603282	     -5.82860810	      0.84256387	      0.01547844	      0.67899716	     -0.23245143	     28.36327169	     12.90527558	      3.91161591	    -20.01170961	      6.99343350	    -11.61704173	      0.00000000	      5.61429040	     -3.73066515	      0.58165267	    -57.01995966	     -2.98781592	      5.07327122	      0.00000000	     -9.81298355	      8.61925409	     -3.22664344
      3.63000000	     -5.98229809	     -6.47285012	      0.54684898	      0.02905199	      0.68132086	     -0.23133252	     26.52717562	     13.71440120	      4.19980867	    -18.64552492	      7.78432302	    -11.28357767	      0.00000000	      8.70931718	     -4.66174300	      0.51844033	    -60.23010465	     -1.49758711	      4.67154135	      0.00000000	     -9.59212402	      9.11952317	     -2.39755118
      3.64000000	     -5.97952679	     -6.88556393	      0.17477934	      0.04255324	      0.68411540	     -0.23019150	     24.33566493	     14.30620374	      4.74128232	    -17.00648087	      8.50943271	    -10.90133853	      0.00000000	     11.49726652	     -5.30844329	      0.43544845	    -62.75564008	      0.25628602	      4.05806174	      0.00000000	     -9.56997035	      9.31688880	     -1.49505688
      3.65000000	     -5.99909339	     -7.04504539	     -0.17897186	      0.05612298	      0.68707218	     -0.22898990	     21.97247896	     14.63887377	      5.77552982	    -15.09526650	      8.95470948	    -10.91606922	      0.00000000	     14.19173012	     -5.65612639	      0.43777810	    -64.66013984	      2.05003286	      3.58623053	      0.00000000	     -9.44489475	      9.18164807	     -0.66131803
      3.66000000	     -5.90306062	     -6.88386795	     -0.65395334	      0.06967060	      0.69026465	     -0.22775497	     19.40240520	     14.65024473	      7.31937231	    -13.11890738	      9.15038792	    -11.23528736	      0.00000000	     16.56244450	     -5.65332018	      0.22456498	    -65.86632193	      3.63422343	      2.70843097	      0.00000000	     -9.48355220	      8.65796062	      0.21418734
      3.67000000	     -5.68350306	     -6.53342775	     -1.08623979	      0.08316908	      0.69352268	     -0.22664119	     16.68882124	     14.39000732	      9.10248087	    -11.11706587	      9.06970642	    -11.91643733	      0.00000000	     18.68011658	     -5.42602704	     -0.01999054	    -66.50667468	      5.00060758	      1.64857748	      0.00000000	     -9.68240293	      7.92998303	      0.97114482
      3.68000000	     -5.54924179	     -5.95933920	     -1.60840390	      0.09654026	      0.69650258	     -0.22556884	     14.19112576	     13.83722283	     10.90725554	     -9.32155065	      9.02539003	    -12.52084516	      0.00000000	     20.76181779	     -4.97204165	     -0.42642521	    -66.61961889	      6.00537189	      0.32956439	      0.00000000	     -9.80651670	      6.95928236	      1.73589678
      3.69000000	     -5.41584449	     -5.30543587	     -2.16140862	      0.10981501	      0.69919366	     -0.22454356	     11.81605693	     13.13725201	     12.70418491	     -7.70053992	      8.89830922	    -13.27021428	      0.00000000	     22.73520491	     -4.46435699	     -0.91743885	    -66.26809564	      6.74584888	     -1.11974448	      0.00000000	     -9.95792301	      5.91907187	      2.46400445
      3.70000000	     -5.31129471	     -4.65950387	     -2.74998787	      0.12299720	      0.70150247	     -0.22359110	      9.64256969	     12.39239843	     14.23673527	     -6.33831601	      8.85734057	    -13.86717886	      0.00000000	     24.64057113	     -4.01150252	     -1.47535250	    -65.49984389	      7.23167954	     -2.68015065	      0.00000000	    -10.11421611	      4.91722241	      3.18408053
      3.71000000	     -5.29827306	     -4.09407063	     -3.34216850	      0.13613349	      0.70334409	     -0.22270511	      7.78149532	     11.71563638	     15.15186270	     -5.31755183	      9.02953861	    -14.01113556	      0.00000000	     26.53630830	     -3.69657100	     -2.05841550	    -64.32228303	      7.47289095	     -4.34710128	      0.00000000	    -10.17485174	      4.04458208	      3.84172381
      3.72000000	     -5.10990718	     -3.69454654	     -4.03796816	      0.14916666	      0.70490502	     -0.22176219	      5.79891263	     11.17488509	     16.38987688	     -4.43237213	      9.16409840	    -14.38281910	      0.00000000	     28.10233818	     -3.64155728	     -2.70228885	    -62.79729962	      7.61640672	     -5.82381149	      0.00000000	    -10.54078685	      3.38430872	      4.60169226
      3.73000000	     -5.07631716	     -3.36558986	     -4.64790736	      0.16216028	      0.70580190	     -0.22096206	      4.12572045	     10.69951622	     17.12500248	     -3.72074378	      9.52096801	    -14.39706508	      0.00000000	     29.68296960	     -3.61979229	     -3.21573868	    -60.88084171	      7.51381614	     -7.31570602	      0.00000000	    -10.72493723	      2.85096606	      5.15839296
      3.74000000	     -4.98970810	     -2.99174334	     -5.29497483	      0.17497018	      0.70616639	     -0.22011368	      2.42755956	     10.13978408	     18.16322046	     -2.91058026	      9.90437797	    -14.65365407	      0.00000000	     30.94838404	     -3.50086047	     -3.68762046	    -58.52068274	      7.23838233	     -8.73934699	      0.00000000	    -11.04490123	      2.25878972	      5.70505467
      3.75000000	     -4.72411057	     -2.26355689	     -5.90515282	      0.18763118	      0.70606578	     -0.21911383	      0.39664231	      9.08164957	     20.14190926	     -1.47562635	      9.79172794	    -16.22499512	      0.00000000	     31.63074912	     -2.86049326	     -4.08244369	    -55.56707784	      6.83734580	    -10.00045779	      0.00000000	    -11.59385110	      1.16105042	      5.99501726
      3.76000000	     -4.70819150	     -0.93146978	     -6.54955777	      0.19980866	      0.70479991	     -0.21801364	     -1.44367567	      7.21350504	     23.22858939	      0.79626263	      9.13398979	    -19.26849075	      0.00000000	     32.17617297	     -1.37478694	     -4.30584999	    -51.97234070	      5.96412473	    -11.70481048	      0.00000000	    -11.82629739	     -0.66233767	      6.19878317
      3.77000000	     -4.83087228	      1.37793511	     -7.38782531	      0.21135666	      0.70234006	     -0.21677944	     -3.15771449	      3.90507480	     27.99753326	      4.24683458	      7.22659022	    -24.85659148	      0.00000000	     32.36393068	      1.35941057	     -4.26698790	    -47.49618768	      4.52301249	    -14.17770775	      0.00000000	    -11.83154061	     -3.67563441	      6.27564490
